<svg width="18" height="24" viewBox="0 0 18 24" fill="none" xmlns="http://www.w3.org/2000/svg">
<g clip-path="url(#clip0_47_1596)">
<path d="M12.75 12.3001L14.25 11.8051L13.41 9.27014L11.91 9.75764C11.513 9.27099 10.996 8.89618 10.41 8.67014V7.08014H7.65V8.67014C7.06402 8.89618 6.54704 9.27099 6.15 9.75764L4.65 9.27014L3.75 11.8051L5.2875 12.3001C5.31513 12.9294 5.51488 13.539 5.865 14.0626L4.92 15.3451L7.11 16.9201L8.055 15.6376C8.67516 15.7951 9.32484 15.7951 9.945 15.6376L10.89 16.9201L13.08 15.3451L12.135 14.0626C12.494 13.5407 12.7064 12.9321 12.75 12.3001ZM9 13.5901C8.70333 13.5901 8.41332 13.5022 8.16664 13.3373C7.91997 13.1725 7.72771 12.9383 7.61418 12.6642C7.50065 12.3901 7.47094 12.0885 7.52882 11.7975C7.5867 11.5065 7.72956 11.2393 7.93934 11.0295C8.14912 10.8197 8.41639 10.6768 8.70736 10.619C8.99834 10.5611 9.29994 10.5908 9.57402 10.7043C9.84811 10.8179 10.0824 11.0101 10.2472 11.2568C10.412 11.5035 10.5 11.7935 10.5 12.0901C10.5 12.488 10.342 12.8695 10.0607 13.1508C9.77936 13.4321 9.39782 13.5901 9 13.5901ZM14.775 24.0001H3.225C2.37891 24.0081 1.56419 23.6802 0.959593 23.0883C0.354996 22.4963 0.00989326 21.6887 0 20.8426L0 3.16514C0.00392121 2.74556 0.0904509 2.33087 0.254648 1.94473C0.418845 1.55859 0.657493 1.20858 0.956966 0.914681C1.25644 0.62078 1.61087 0.388746 2.00002 0.231829C2.38917 0.0749113 2.80542 -0.00381603 3.225 0.000142173H14.775C15.1946 -0.00381603 15.6108 0.0749113 16 0.231829C16.3891 0.388746 16.7436 0.62078 17.043 0.914681C17.3425 1.20858 17.5812 1.55859 17.7454 1.94473C17.9095 2.33087 17.9961 2.74556 18 3.16514V20.8426C17.9901 21.6887 17.645 22.4963 17.0404 23.0883C16.4358 23.6802 15.6211 24.0081 14.775 24.0001V24.0001ZM3.225 1.50014C3.0024 1.49617 2.7812 1.53608 2.57403 1.61761C2.36686 1.69914 2.17778 1.82069 2.01759 1.9753C1.8574 2.12992 1.72924 2.31458 1.64043 2.51873C1.55162 2.72289 1.5039 2.94254 1.5 3.16514V20.8426C1.50985 21.2909 1.6969 21.717 2.0202 22.0276C2.3435 22.3383 2.77671 22.5082 3.225 22.5001H14.775C15.2233 22.5082 15.6565 22.3383 15.9798 22.0276C16.3031 21.717 16.4902 21.2909 16.5 20.8426V3.16514C16.4961 2.94254 16.4484 2.72289 16.3596 2.51873C16.2708 2.31458 16.1426 2.12992 15.9824 1.9753C15.8222 1.82069 15.6331 1.69914 15.426 1.61761C15.2188 1.53608 14.9976 1.49617 14.775 1.50014H3.225Z" fill="#066597"/>
</g>
<defs>
<clipPath id="clip0_47_1596">
<rect width="18" height="24" fill="white"/>
</clipPath>
</defs>
</svg>
