<svg width="24" height="23" viewBox="0 0 24 23" fill="none" xmlns="http://www.w3.org/2000/svg">
<g clip-path="url(#clip0_47_1585)">
<path d="M19.2594 2.15625H18.2891C18.2437 2.15706 18.199 2.16719 18.1578 2.18601C18.1165 2.20483 18.0796 2.23194 18.0492 2.26565C18.0189 2.29935 17.9958 2.33894 17.9814 2.38194C17.967 2.42495 17.9617 2.47045 17.9656 2.51563C17.9617 2.5608 17.967 2.6063 17.9814 2.64931C17.9958 2.69231 18.0189 2.7319 18.0492 2.7656C18.0796 2.79931 18.1165 2.82642 18.1578 2.84524C18.199 2.86406 18.2437 2.87419 18.2891 2.875H19.0078C19.9422 2.875 20.625 3.17688 20.625 4.49938V5.21813C20.625 5.31344 20.6629 5.40485 20.7302 5.47224C20.7976 5.53964 20.8891 5.5775 20.9844 5.5775C21.0797 5.5775 21.1711 5.53964 21.2385 5.47224C21.3059 5.40485 21.3437 5.31344 21.3437 5.21813V4.1975C21.3152 3.65799 21.0852 3.14886 20.6992 2.77085C20.3132 2.39284 19.7993 2.1735 19.2594 2.15625" fill="#B1BAC0"/>
<path d="M19.1875 0H4.8125C3.66875 0 2.57185 0.454351 1.7631 1.2631C0.954351 2.07185 0.5 3.16875 0.5 4.3125L0.5 18.6875C0.5 19.8312 0.954351 20.9281 1.7631 21.7369C2.57185 22.5456 3.66875 23 4.8125 23H19.1875C20.3312 23 21.4281 22.5456 22.2369 21.7369C23.0456 20.9281 23.5 19.8312 23.5 18.6875V4.3125C23.5 3.16875 23.0456 2.07185 22.2369 1.2631C21.4281 0.454351 20.3312 0 19.1875 0V0ZM22.0625 18.6875C22.0625 19.45 21.7596 20.1813 21.2204 20.7204C20.6813 21.2596 19.95 21.5625 19.1875 21.5625H4.8125C4.05 21.5625 3.31874 21.2596 2.77957 20.7204C2.2404 20.1813 1.9375 19.45 1.9375 18.6875V4.3125C1.9375 3.55 2.2404 2.81874 2.77957 2.27957C3.31874 1.7404 4.05 1.4375 4.8125 1.4375H19.1875C19.95 1.4375 20.6813 1.7404 21.2204 2.27957C21.7596 2.81874 22.0625 3.55 22.0625 4.3125V18.6875Z" fill="#B1BAC0"/>
<path d="M12 3.59375C11.4314 3.59375 10.8755 3.76237 10.4027 4.07827C9.92995 4.39418 9.56145 4.8432 9.34385 5.36854C9.12625 5.89387 9.06931 6.47194 9.18024 7.02963C9.29118 7.58733 9.56499 8.09961 9.96707 8.50168C10.3691 8.90376 10.8814 9.17758 11.4391 9.28851C11.9968 9.39944 12.5749 9.34251 13.1002 9.1249C13.6256 8.9073 14.0746 8.53881 14.3905 8.06601C14.7064 7.59322 14.875 7.03737 14.875 6.46875C14.875 5.70625 14.5721 4.97499 14.0329 4.43582C13.4938 3.89665 12.7625 3.59375 12 3.59375ZM13.7969 6.82813C13.7016 6.82813 13.6102 6.79026 13.5428 6.72287C13.4754 6.65547 13.4375 6.56406 13.4375 6.46875C13.4375 6.0875 13.2861 5.72187 13.0165 5.45228C12.7469 5.1827 12.3813 5.03125 12 5.03125C11.9047 5.03125 11.8133 4.99339 11.7459 4.92599C11.6785 4.8586 11.6406 4.76719 11.6406 4.67188C11.6406 4.57656 11.6785 4.48515 11.7459 4.41776C11.8133 4.35036 11.9047 4.3125 12 4.3125C12.5719 4.3125 13.1203 4.53968 13.5247 4.94405C13.9291 5.34843 14.1563 5.89688 14.1563 6.46875C14.1563 6.56406 14.1184 6.65547 14.051 6.72287C13.9836 6.79026 13.8922 6.82813 13.7969 6.82813Z" fill="#B1BAC0"/>
<path d="M12 13.6562C11.4314 13.6562 10.8755 13.8249 10.4027 14.1408C9.92995 14.4567 9.56145 14.9057 9.34385 15.431C9.12625 15.9564 9.06931 16.5344 9.18024 17.0921C9.29118 17.6498 9.56499 18.1621 9.96707 18.5642C10.3691 18.9663 10.8814 19.2401 11.4391 19.351C11.9968 19.4619 12.5749 19.405 13.1002 19.1874C13.6256 18.9698 14.0746 18.6013 14.3905 18.1285C14.7064 17.6557 14.875 17.0999 14.875 16.5313C14.875 15.7688 14.5721 15.0375 14.0329 14.4983C13.4938 13.9592 12.7625 13.6562 12 13.6562ZM13.7969 16.8906C13.7016 16.8906 13.6102 16.8528 13.5428 16.7854C13.4754 16.718 13.4375 16.6266 13.4375 16.5313C13.4375 16.15 13.2861 15.7844 13.0165 15.5148C12.7469 15.2452 12.3813 15.0938 12 15.0938C11.9047 15.0938 11.8133 15.0559 11.7459 14.9885C11.6785 14.9211 11.6406 14.8297 11.6406 14.7344C11.6406 14.6391 11.6785 14.5477 11.7459 14.4803C11.8133 14.4129 11.9047 14.375 12 14.375C12.5719 14.375 13.1203 14.6022 13.5247 15.0066C13.9291 15.4109 14.1563 15.9594 14.1563 16.5313C14.1563 16.6266 14.1184 16.718 14.051 16.7854C13.9836 16.8528 13.8922 16.8906 13.7969 16.8906Z" fill="#B1BAC0"/>
<path d="M17.0313 8.625C16.4626 8.625 15.9068 8.79362 15.434 9.10953C14.9612 9.42543 14.5927 9.87445 14.3751 10.3998C14.1575 10.9251 14.1006 11.5032 14.2115 12.0609C14.3224 12.6186 14.5962 13.1309 14.9983 13.5329C15.4004 13.935 15.9127 14.2088 16.4704 14.3198C17.0281 14.4307 17.6061 14.3738 18.1315 14.1562C18.6568 13.9386 19.1058 13.5701 19.4217 13.0973C19.7376 12.6245 19.9063 12.0686 19.9063 11.5C19.9063 10.7375 19.6033 10.0062 19.0642 9.46707C18.525 8.9279 17.7937 8.625 17.0313 8.625V8.625ZM18.8281 11.8594C18.7328 11.8594 18.6414 11.8215 18.574 11.7541C18.5066 11.6867 18.4688 11.5953 18.4688 11.5C18.4688 11.1188 18.3173 10.7531 18.0477 10.4835C17.7781 10.214 17.4125 10.0625 17.0313 10.0625C16.9359 10.0625 16.8445 10.0246 16.7771 9.95724C16.7097 9.88985 16.6719 9.79844 16.6719 9.70312C16.6719 9.60781 16.7097 9.5164 16.7771 9.44901C16.8445 9.38161 16.9359 9.34375 17.0313 9.34375C17.6031 9.34375 18.1516 9.57093 18.556 9.9753C18.9603 10.3797 19.1875 10.9281 19.1875 11.5C19.1875 11.5953 19.1496 11.6867 19.0822 11.7541C19.0148 11.8215 18.9234 11.8594 18.8281 11.8594Z" fill="#B1BAC0"/>
<path d="M6.96875 8.625C6.40013 8.625 5.84428 8.79362 5.37149 9.10953C4.8987 9.42543 4.5302 9.87445 4.3126 10.3998C4.095 10.9251 4.03806 11.5032 4.14899 12.0609C4.25993 12.6186 4.53374 13.1309 4.93582 13.5329C5.3379 13.935 5.85017 14.2088 6.40787 14.3198C6.96556 14.4307 7.54363 14.3738 8.06897 14.1562C8.5943 13.9386 9.04332 13.5701 9.35923 13.0973C9.67514 12.6245 9.84375 12.0686 9.84375 11.5C9.84375 10.7375 9.54085 10.0062 9.00168 9.46707C8.46252 8.9279 7.73125 8.625 6.96875 8.625V8.625ZM8.76563 11.8594C8.67031 11.8594 8.57891 11.8215 8.51151 11.7541C8.44411 11.6867 8.40625 11.5953 8.40625 11.5C8.40625 11.1188 8.2548 10.7531 7.98522 10.4835C7.71563 10.214 7.35 10.0625 6.96875 10.0625C6.87344 10.0625 6.78203 10.0246 6.71463 9.95724C6.64724 9.88985 6.60938 9.79844 6.60938 9.70312C6.60938 9.60781 6.64724 9.5164 6.71463 9.44901C6.78203 9.38161 6.87344 9.34375 6.96875 9.34375C7.54062 9.34375 8.08908 9.57093 8.49345 9.9753C8.89783 10.3797 9.125 10.9281 9.125 11.5C9.125 11.5953 9.08714 11.6867 9.01974 11.7541C8.95235 11.8215 8.86094 11.8594 8.76563 11.8594Z" fill="#B1BAC0"/>
</g>
<defs>
<clipPath id="clip0_47_1585">
<rect width="23" height="23" fill="white" transform="translate(0.5)"/>
</clipPath>
</defs>
</svg>
