<svg width="27" height="27" viewBox="0 0 27 27" fill="none" xmlns="http://www.w3.org/2000/svg">
<path d="M26.0705 11.2458L15.7349 0.892051C15.1313 0.319297 14.331 0 13.499 0C12.667 0 11.8667 0.319297 11.2632 0.892051L0.919143 11.2458C0.330205 11.8427 0 12.6476 0 13.4861C0 14.3247 0.330205 15.1296 0.919143 15.7265C1.48903 16.3734 2.28088 16.7829 3.13813 16.8741H4.21809V27H10.9679V18.5617H16.0302V27H22.78V16.8741H24.0962C24.8764 16.7571 25.5826 16.3466 26.0705 15.7265C26.3651 15.4326 26.5989 15.0834 26.7584 14.6989C26.9179 14.3145 27 13.9024 27 13.4861C27 13.0699 26.9179 12.6578 26.7584 12.2734C26.5989 11.8889 26.3651 11.5397 26.0705 11.2458V11.2458ZM21.0925 25.3124H17.7176V16.8741H9.28042V25.3124H5.90553V15.8024L5.13775 14.3426L12.1575 7.31356C12.5423 7.01796 13.0139 6.85771 13.499 6.85771C13.9842 6.85771 14.4558 7.01796 14.8405 7.31356L21.8603 14.3426L21.0925 15.8024V25.3124ZM24.8808 14.5283C24.6227 14.782 24.2805 14.9322 23.919 14.9502C23.6562 14.9636 23.3935 14.9217 23.1479 14.8272C22.9023 14.7327 22.6792 14.5878 22.4931 14.4017L15.4396 7.33044C14.923 6.81925 14.2257 6.53253 13.499 6.53253C12.7723 6.53253 12.075 6.81925 11.5585 7.33044L4.50496 14.4017C4.32969 14.5792 4.12074 14.7199 3.89037 14.8155C3.66001 14.9111 3.41286 14.9598 3.16344 14.9586C2.97054 14.9595 2.77941 14.9218 2.60122 14.848C2.42304 14.7741 2.26136 14.6654 2.12566 14.5283C1.8495 14.2501 1.69452 13.8739 1.69452 13.4819C1.69452 13.0899 1.8495 12.7138 2.12566 12.4356L12.4528 2.09028C12.7351 1.82199 13.1096 1.67239 13.499 1.67239C13.8884 1.67239 14.263 1.82199 14.5452 2.09028L24.8808 12.4356C25.157 12.7138 25.312 13.0899 25.312 13.4819C25.312 13.8739 25.157 14.2501 24.8808 14.5283" fill="#066597"/>
</svg>
